<svg width="23" height="22" viewBox="0 0 23 22" fill="none" xmlns="http://www.w3.org/2000/svg">
<path fill-rule="evenodd" clip-rule="evenodd" d="M17.9992 12.4535V9.16634C17.9992 6.21742 15.9963 3.73326 13.2829 2.98617C13.0144 2.30967 12.358 1.83301 11.5825 1.83301C10.807 1.83301 10.1507 2.30967 9.8821 2.98617C7.16877 3.73417 5.16585 6.21742 5.16585 9.16634V12.4535L3.6011 14.0183C3.42877 14.1897 3.33252 14.4225 3.33252 14.6663V16.4997C3.33252 17.0066 3.74227 17.4163 4.24919 17.4163H18.9159C19.4228 17.4163 19.8325 17.0066 19.8325 16.4997V14.6663C19.8325 14.4225 19.7363 14.1897 19.5639 14.0183L17.9992 12.4535ZM17.9992 15.583H5.16589V15.0458L6.73064 13.4811C6.90298 13.3097 6.99923 13.0768 6.99923 12.833V9.16634C6.99923 6.63909 9.05531 4.58301 11.5826 4.58301C14.1098 4.58301 16.1659 6.63909 16.1659 9.16634V12.833C16.1659 13.0768 16.2621 13.3097 16.4345 13.4811L17.9992 15.0458V15.583ZM11.5826 20.1663C12.7843 20.1663 13.789 19.4018 14.1657 18.333H8.99939C9.37614 19.4018 10.3808 20.1663 11.5826 20.1663Z" fill="#555B6D"/>
</svg>
