<svg width="73" height="72" viewBox="0 0 73 72" fill="none" xmlns="http://www.w3.org/2000/svg">
<path fill-rule="evenodd" clip-rule="evenodd" d="M36.8799 5.99997C20.3379 5.99997 6.87988 19.458 6.87988 36C6.87988 52.542 20.3379 66 36.8799 66C53.4219 66 66.8799 52.542 66.8799 36C66.8799 19.458 53.4219 5.99997 36.8799 5.99997V5.99997ZM59.1129 27H48.8799V27.093C48.0039 25.917 46.9629 24.876 45.7869 24H45.8799V13.767C51.8829 16.206 56.6739 21 59.1129 27V27ZM36.8799 45C31.9179 45 27.8799 40.962 27.8799 36C27.8799 31.038 31.9179 27 36.8799 27C41.8419 27 45.8799 31.038 45.8799 36C45.8799 40.962 41.8419 45 36.8799 45V45ZM39.8799 12.207V21.303C38.9109 21.105 37.9089 21 36.8799 21C35.8509 21 34.8489 21.105 33.8799 21.303V12.207C34.8639 12.084 35.8599 12 36.8799 12C37.8999 12 38.8959 12.084 39.8799 12.207V12.207ZM27.8799 13.767V24H27.9729C26.7968 24.876 25.7558 25.917 24.8799 27.093V27H14.6469C17.0858 21 21.8769 16.206 27.8799 13.767V13.767ZM13.0869 33H22.1829C21.9849 33.969 21.8799 34.974 21.8799 36C21.8799 37.026 21.9849 38.031 22.1859 39H13.0869C12.9639 38.016 12.8799 37.017 12.8799 36C12.8799 34.983 12.9639 33.984 13.0869 33V33ZM14.6469 45H24.8799V44.907C25.7319 46.05 26.7429 47.061 27.8799 47.922V58.233C21.8768 55.794 17.0859 51 14.6469 45V45ZM33.8799 59.793V50.697C34.8489 50.895 35.8509 51 36.8799 51C37.9089 51 38.9109 50.895 39.8799 50.697V59.793C38.8959 59.916 37.8999 60 36.8799 60C35.8599 60 34.8639 59.916 33.8799 59.793V59.793ZM45.8799 58.233V47.922C47.0169 47.061 48.0279 46.05 48.8799 44.907V45H59.1129C56.6739 51 51.8829 55.794 45.8799 58.233V58.233ZM60.6728 39H51.5769C51.7749 38.031 51.8799 37.026 51.8799 36C51.8799 34.974 51.7749 33.969 51.5739 33H60.6698C60.7958 33.984 60.8798 34.983 60.8798 36C60.8798 37.017 60.7958 38.016 60.6728 39V39Z" fill="#5BB043" fill-opacity="0.356863"/>
</svg>
